<!DOCTYPE svg PUBLIC "-//W3C//DTD SVG 1.1//EN" "http://www.w3.org/Graphics/SVG/1.1/DTD/svg11.dtd">
<!-- Uploaded to: SVG Repo, www.svgrepo.com, Transformed by: SVG Repo Mixer Tools -->
<svg fill="#000000" width="800px" height="800px" viewBox="0 0 24 24" id="fish" data-name="Line Color" xmlns="http://www.w3.org/2000/svg" class="icon line-color">
<g id="SVGRepo_bgCarrier" stroke-width="0"/>
<g id="SVGRepo_tracerCarrier" stroke-linecap="round" stroke-linejoin="round"/>
<g id="SVGRepo_iconCarrier">
<path id="primary" d="M14.5,7A9.93,9.93,0,0,0,8.1,9.74,4.83,4.83,0,0,0,6.77,8.55,3.65,3.65,0,0,0,3,8.51,4.14,4.14,0,0,0,5.08,12,4.14,4.14,0,0,0,3,15.49a3.65,3.65,0,0,0,3.77,0A4.83,4.83,0,0,0,8.1,14.26,9.93,9.93,0,0,0,14.5,17c5,0,6.5-5,6.5-5S19.5,7,14.5,7Z" style="fill: none; stroke: #0000FF; stroke-linecap: round; stroke-linejoin: round; stroke-width: 2;"/>
</g>
</svg>